<svg aria-hidden="true" style="position:absolute;width:0;height:0;overflow:hidden" xmlns="http://www.w3.org/2000/svg">
  <defs>
    <symbol id="burger" viewBox="0 0 32 32">
        <path d="M29.167 24.667c0.642 0 1.259 0.248 1.724 0.691s0.741 1.048 0.772 1.689c0.031 0.641-0.186 1.27-0.606 1.755s-1.011 0.791-1.65 0.853l-0.24 0.012h-26.667c-0.642-0-1.259-0.248-1.724-0.691s-0.741-1.048-0.772-1.689c-0.031-0.641 0.186-1.27 0.606-1.755s1.011-0.791 1.65-0.853l0.24-0.012h26.667zM29.167 13c0.663 0 1.299 0.263 1.768 0.732s0.732 1.105 0.732 1.768-0.263 1.299-0.732 1.768c-0.469 0.469-1.105 0.732-1.768 0.732h-26.667c-0.663 0-1.299-0.263-1.768-0.732s-0.732-1.105-0.732-1.768 0.263-1.299 0.732-1.768c0.469-0.469 1.105-0.732 1.768-0.732h26.667zM29.167 1.333c0.663 0 1.299 0.263 1.768 0.732s0.732 1.105 0.732 1.768-0.263 1.299-0.732 1.768c-0.469 0.469-1.105 0.732-1.768 0.732h-26.667c-0.663 0-1.299-0.263-1.768-0.732s-0.732-1.105-0.732-1.768c0-0.663 0.263-1.299 0.732-1.768s1.105-0.732 1.768-0.732h26.667z"></path>
    </symbol>
    <symbol id="close" viewBox="0 0 32 32">
        <path stroke-linejoin="round" stroke-linecap="round" stroke-miterlimit="4" stroke-width="5.3333" d="M15.111 15.111l12.444-12.444M15.111 15.111l-12.444 12.444M15.111 15.111l-12.444-12.444M15.111 15.111l12.444 12.444"></path>
    </symbol>
  </defs>
</svg>
