<svg width="24" height="24" viewBox="0 0 24 24" fill="none" xmlns="http://www.w3.org/2000/svg">
<path d="M12.2504 1C12.3909 0.999909 12.5286 1.03916 12.6479 1.11331C12.7673 1.18747 12.8635 1.29356 12.9257 1.41958L15.9941 7.64005L22.8565 8.63781C22.9953 8.65815 23.1257 8.71693 23.233 8.8075C23.3402 8.89807 23.4199 9.01683 23.4633 9.15036C23.5066 9.28389 23.5117 9.42688 23.4781 9.56317C23.4444 9.69947 23.3734 9.82364 23.2729 9.92166L18.308 14.7629L19.48 21.5997C19.5034 21.7381 19.4877 21.8802 19.4347 22.0102C19.3817 22.1401 19.2936 22.2526 19.1801 22.3352C19.0666 22.4177 18.9324 22.4669 18.7925 22.4772C18.6526 22.4876 18.5126 22.4586 18.3883 22.3937L12.2504 19.1655L6.1125 22.3937C5.98826 22.459 5.84826 22.4882 5.70831 22.478C5.56836 22.4679 5.43403 22.4188 5.32048 22.3363C5.20694 22.2539 5.11871 22.1413 5.06575 22.0113C5.01279 21.8813 4.99721 21.7391 5.02078 21.6007L6.19277 14.7629L1.22788 9.92166C1.1271 9.82361 1.05579 9.69928 1.02203 9.56277C0.988264 9.42626 0.993399 9.28301 1.03685 9.14927C1.0803 9.01553 1.16033 8.89663 1.26787 8.80606C1.37541 8.71548 1.50615 8.65685 1.6453 8.63681L8.50664 7.64005L11.5761 1.41958C11.6382 1.29371 11.7343 1.18772 11.8534 1.11358C11.9726 1.03944 12.1101 1.0001 12.2504 1ZM12.2504 3.45426L9.68164 8.6609C9.62758 8.77034 9.54772 8.86499 9.44896 8.93668C9.35019 9.00838 9.23548 9.05497 9.11471 9.07245L3.37017 9.9076L7.52731 13.9609C7.61458 14.0462 7.67982 14.1514 7.7174 14.2675C7.75498 14.3836 7.76378 14.5071 7.74304 14.6274L6.76171 20.351L11.9002 17.6488C12.0082 17.592 12.1284 17.5623 12.2504 17.5623C12.3724 17.5623 12.4926 17.592 12.6006 17.6488L17.7381 20.351L16.7577 14.6274C16.737 14.5071 16.7458 14.3836 16.7834 14.2675C16.8209 14.1514 16.8862 14.0462 16.9735 13.9609L21.1306 9.9076L15.3861 9.07346C15.2653 9.05598 15.1506 9.00938 15.0518 8.93769C14.953 8.86599 14.8732 8.77134 14.8191 8.6619L12.2504 3.45426Z" fill="#FDD835"/>
</svg>
