<svg width="24" height="24" viewBox="0 0 24 24" fill="none" xmlns="http://www.w3.org/2000/svg">
<path d="M12.7596 1.35563L15.2833 7.11188C15.3783 7.32847 15.5296 7.51562 15.7216 7.65381C15.9135 7.79199 16.139 7.87615 16.3746 7.8975L22.5227 8.44875C23.2183 8.55 23.4958 9.40312 22.9914 9.89437L18.3602 13.785C17.9852 14.1 17.8146 14.595 17.9177 15.0731L19.2639 21.375C19.3821 22.0669 18.6564 22.5956 18.0339 22.2675L12.6677 19.125C12.4653 19.0062 12.2349 18.9435 12.0002 18.9435C11.7655 18.9435 11.5351 19.0062 11.3327 19.125L5.96644 22.2656C5.34581 22.5919 4.61831 22.065 4.73644 21.3731L6.08269 15.0712C6.18394 14.5931 6.01519 14.0981 5.64019 13.7831L1.00706 9.89625C0.50456 9.40687 0.78206 8.55188 1.47581 8.45062L7.62394 7.89937C7.85948 7.87802 8.08498 7.79386 8.27692 7.65568C8.46886 7.5175 8.62021 7.33035 8.71519 7.11375L11.2389 1.3575C11.5521 0.7275 12.4483 0.7275 12.7596 1.35563Z" fill="#FDD835"/>
<path d="M12.5758 7.45684L12.1483 3.21559C12.1314 2.97934 12.0827 2.57434 12.4614 2.57434C12.7614 2.57434 12.9246 3.19872 12.9246 3.19872L14.2071 6.60372C14.6908 7.89934 14.4921 8.34372 14.0252 8.60622C13.4889 8.90622 12.6977 8.67184 12.5758 7.45684Z" fill="#FFFF8D"/>
<path d="M17.8651 13.4081L21.5438 10.5375C21.7257 10.3856 22.0538 10.1438 21.7913 9.86813C21.5832 9.65063 21.0207 9.96376 21.0207 9.96376L17.8013 11.2219C16.8413 11.5538 16.2038 12.045 16.1476 12.6638C16.0744 13.4888 16.8151 14.1244 17.8651 13.4081Z" fill="#F4B400"/>
</svg>
