<svg aria-hidden="true" style="position:absolute;width:0;height:0;overflow:hidden" xmlns="http://www.w3.org/2000/svg">
  <defs>
    <symbol id="burger" viewBox="0 0 32 32">
        <path d="M29.167 24.667c0.642 0 1.259 0.248 1.724 0.691s0.741 1.048 0.772 1.689c0.031 0.641-0.186 1.27-0.606 1.755s-1.011 0.791-1.65 0.853l-0.24 0.012h-26.667c-0.642-0-1.259-0.248-1.724-0.691s-0.741-1.048-0.772-1.689c-0.031-0.641 0.186-1.27 0.606-1.755s1.011-0.791 1.65-0.853l0.24-0.012h26.667zM29.167 13c0.663 0 1.299 0.263 1.768 0.732s0.732 1.105 0.732 1.768-0.263 1.299-0.732 1.768c-0.469 0.469-1.105 0.732-1.768 0.732h-26.667c-0.663 0-1.299-0.263-1.768-0.732s-0.732-1.105-0.732-1.768 0.263-1.299 0.732-1.768c0.469-0.469 1.105-0.732 1.768-0.732h26.667zM29.167 1.333c0.663 0 1.299 0.263 1.768 0.732s0.732 1.105 0.732 1.768-0.263 1.299-0.732 1.768c-0.469 0.469-1.105 0.732-1.768 0.732h-26.667c-0.663 0-1.299-0.263-1.768-0.732s-0.732-1.105-0.732-1.768c0-0.663 0.263-1.299 0.732-1.768s1.105-0.732 1.768-0.732h26.667z"></path>
    </symbol>
    <symbol id="close" viewBox="0 0 32 32">
        <path stroke-linejoin="round" stroke-linecap="round" stroke-miterlimit="4" stroke-width="5.3333" d="M15.111 15.111l12.444-12.444M15.111 15.111l-12.444 12.444M15.111 15.111l-12.444-12.444M15.111 15.111l12.444 12.444"></path>
    </symbol>






<symbol fill="none" xmlns="http://www.w3.org/2000/svg" viewBox="0 0 28 28" id="arrow-down">
    <mask id="mask0_161_14439" maskUnits="userSpaceOnUse" x="3" y="3" width="22" height="22">
      <path d="M4.6665 14V22.1667C4.6665 22.8084 5.1915 23.3334 5.83317 23.3334H22.1665C22.8082 23.3334 23.3332 22.8084 23.3332 22.1667V5.83337C23.3332 5.19171 22.8082 4.66671 22.1665 4.66671H5.83317C5.1915 4.66671 4.6665 5.19171 4.6665 5.83337V14Z" fill="white" stroke="white" stroke-width="2" stroke-linecap="round" stroke-linejoin="round"></path>
      <path d="M9.5 11.9999L14 16.9999L18.5 11.9999" stroke="black" stroke-width="2" stroke-linecap="round" stroke-linejoin="round"></path>
    </mask>
    <g mask="url(#mask0_161_14439)">
      <path d="M0 28H28V0H0V28Z" fill="#53311E"></path>
    </g>
  </symbol>
  <symbol fill="none" xmlns="http://www.w3.org/2000/svg" viewBox="0 0 24 24" id="empty-star">
    <path d="M12.2504 1C12.3909 0.999909 12.5286 1.03916 12.6479 1.11331C12.7673 1.18747 12.8635 1.29356 12.9257 1.41958L15.9941 7.64005L22.8565 8.63781C22.9953 8.65815 23.1257 8.71693 23.233 8.8075C23.3402 8.89807 23.4199 9.01683 23.4633 9.15036C23.5066 9.28389 23.5117 9.42688 23.4781 9.56317C23.4444 9.69947 23.3734 9.82364 23.2729 9.92166L18.308 14.7629L19.48 21.5997C19.5034 21.7381 19.4877 21.8802 19.4347 22.0102C19.3817 22.1401 19.2936 22.2526 19.1801 22.3352C19.0666 22.4177 18.9324 22.4669 18.7925 22.4772C18.6526 22.4876 18.5126 22.4586 18.3883 22.3937L12.2504 19.1655L6.1125 22.3937C5.98826 22.459 5.84826 22.4882 5.70831 22.478C5.56836 22.4679 5.43403 22.4188 5.32048 22.3363C5.20694 22.2539 5.11871 22.1413 5.06575 22.0113C5.01279 21.8813 4.99721 21.7391 5.02078 21.6007L6.19277 14.7629L1.22788 9.92166C1.1271 9.82361 1.05579 9.69928 1.02203 9.56277C0.988264 9.42626 0.993399 9.28301 1.03685 9.14927C1.0803 9.01553 1.16033 8.89663 1.26787 8.80606C1.37541 8.71548 1.50615 8.65685 1.6453 8.63681L8.50664 7.64005L11.5761 1.41958C11.6382 1.29371 11.7343 1.18772 11.8534 1.11358C11.9726 1.03944 12.1101 1.0001 12.2504 1ZM12.2504 3.45426L9.68164 8.6609C9.62758 8.77034 9.54772 8.86499 9.44896 8.93668C9.35019 9.00838 9.23548 9.05497 9.11471 9.07245L3.37017 9.9076L7.52731 13.9609C7.61458 14.0462 7.67982 14.1514 7.7174 14.2675C7.75498 14.3836 7.76378 14.5071 7.74304 14.6274L6.76171 20.351L11.9002 17.6488C12.0082 17.592 12.1284 17.5623 12.2504 17.5623C12.3724 17.5623 12.4926 17.592 12.6006 17.6488L17.7381 20.351L16.7577 14.6274C16.737 14.5071 16.7458 14.3836 16.7834 14.2675C16.8209 14.1514 16.8862 14.0462 16.9735 13.9609L21.1306 9.9076L15.3861 9.07346C15.2653 9.05598 15.1506 9.00938 15.0518 8.93769C14.953 8.86599 14.8732 8.77134 14.8191 8.6619L12.2504 3.45426Z" fill="#FDD835"></path>
  </symbol>
  <symbol fill="none" xmlns="http://www.w3.org/2000/svg" viewBox="0 0 60 60" id="gallery-left-arrow">
    <mask id="mask0_106_9117" maskUnits="userSpaceOnUse" x="10" y="10" width="40" height="40">
      <path d="M50 30V47.5C50 48.875 48.875 50 47.5 50H12.5C11.125 50 10 48.875 10 47.5V12.5C10 11.125 11.125 10 12.5 10H47.5C48.875 10 50 11.125 50 12.5V30Z" fill="white"></path>
      <path d="M32.5 34.9999L27.5 30.4999L32.5 25.9999" stroke="black" stroke-width="2" stroke-linecap="round" stroke-linejoin="round"></path>
    </mask>
    <g mask="url(#mask0_106_9117)">
      <path d="M60 60H0V0H60V60Z" fill="#FDFCF9"></path>
    </g>
  </symbol>
  <symbol fill="none" xmlns="http://www.w3.org/2000/svg" viewBox="0 0 28 28" id="close-faq">
    <mask id="mask0_161_14438" maskUnits="userSpaceOnUse" x="3" y="3" width="22" height="22">
      <path d="M4.6665 14V22.1667C4.6665 22.8084 5.1915 23.3334 5.83317 23.3334H22.1665C22.8082 23.3334 23.3332 22.8084 23.3332 22.1667V5.83337C23.3332 5.19171 22.8082 4.66671 22.1665 4.66671H5.83317C5.1915 4.66671 4.6665 5.19171 4.6665 5.83337V14Z" fill="white" stroke="white" stroke-width="2" stroke-linecap="round" stroke-linejoin="round"></path>
      <path d="M13.9997 14.0001L18.6663 9.33342M13.9997 14.0001L9.33301 18.6667M13.9997 14.0001L9.33301 9.33342M13.9997 14.0001L18.6663 18.6667" stroke="black" stroke-width="2" stroke-linecap="round" stroke-linejoin="round"></path>
    </mask>
    <g mask="url(#mask0_161_14438)">
      <path d="M0 28H28V0H0V28Z" fill="#53311E"></path>
    </g>
  </symbol>
  
  <symbol fill="none" xmlns="http://www.w3.org/2000/svg" viewBox="0 0 60 60" id="gallery-right-arrow">
    <mask id="mask0_106_9116" maskUnits="userSpaceOnUse" x="10" y="10" width="40" height="40">
      <path d="M10 30V47.5C10 48.875 11.125 50 12.5 50H47.5C48.875 50 50 48.875 50 47.5V12.5C50 11.125 48.875 10 47.5 10H12.5C11.125 10 10 11.125 10 12.5V30Z" fill="white"></path>
      <path d="M27.5 34.9999L32.5 30.4999L27.5 25.9999" stroke="black" stroke-width="2" stroke-linecap="round" stroke-linejoin="round"></path>
    </mask>
    <g mask="url(#mask0_106_9116)">
      <path d="M0 60H60V0H0V60Z" fill="#FDFCF9"></path>
    </g>
  </symbol>
  <symbol fill="none" xmlns="http://www.w3.org/2000/svg" viewBox="0 0 24 24" id="filled-star">
    <path d="M12.7596 1.35563L15.2833 7.11188C15.3783 7.32847 15.5296 7.51562 15.7216 7.65381C15.9135 7.79199 16.139 7.87615 16.3746 7.8975L22.5227 8.44875C23.2183 8.55 23.4958 9.40312 22.9914 9.89437L18.3602 13.785C17.9852 14.1 17.8146 14.595 17.9177 15.0731L19.2639 21.375C19.3821 22.0669 18.6564 22.5956 18.0339 22.2675L12.6677 19.125C12.4653 19.0062 12.2349 18.9435 12.0002 18.9435C11.7655 18.9435 11.5351 19.0062 11.3327 19.125L5.96644 22.2656C5.34581 22.5919 4.61831 22.065 4.73644 21.3731L6.08269 15.0712C6.18394 14.5931 6.01519 14.0981 5.64019 13.7831L1.00706 9.89625C0.50456 9.40687 0.78206 8.55188 1.47581 8.45062L7.62394 7.89937C7.85948 7.87802 8.08498 7.79386 8.27692 7.65568C8.46886 7.5175 8.62021 7.33035 8.71519 7.11375L11.2389 1.3575C11.5521 0.7275 12.4483 0.7275 12.7596 1.35563Z" fill="#FDD835"></path>
    <path d="M12.5758 7.45684L12.1483 3.21559C12.1314 2.97934 12.0827 2.57434 12.4614 2.57434C12.7614 2.57434 12.9246 3.19872 12.9246 3.19872L14.2071 6.60372C14.6908 7.89934 14.4921 8.34372 14.0252 8.60622C13.4889 8.90622 12.6977 8.67184 12.5758 7.45684Z" fill="#FFFF8D"></path>
    <path d="M17.8651 13.4081L21.5438 10.5375C21.7257 10.3856 22.0538 10.1438 21.7913 9.86813C21.5832 9.65063 21.0207 9.96376 21.0207 9.96376L17.8013 11.2219C16.8413 11.5538 16.2038 12.045 16.1476 12.6638C16.0744 13.4888 16.8151 14.1244 17.8651 13.4081Z" fill="#F4B400"></path>
  </symbol>
  </defs>
</svg>
